<?xml version="1.0" encoding="UTF-8"?>
<svg version="1.1" xmlns="http://www.w3.org/2000/svg" width="1070" height="336">
<path d="M0 0 C353.1 0 706.2 0 1070 0 C1070 110.88 1070 221.76 1070 336 C716.9 336 363.8 336 0 336 C0 225.12 0 114.24 0 0 Z " fill="#FEFEFE" transform="translate(0,0)"/>
<path d="M0 0 C2.55871188 2.2388729 5.00974181 4.54984559 7.4375 6.9296875 C8.13875 7.59484375 8.84 8.26 9.5625 8.9453125 C22.70604033 22.39690455 27.74028506 41.2745981 27.875 59.6171875 C27.6026985 80.91998568 20.78497611 98.99075714 6.25 114.6171875 C-9.02941214 129.19379874 -30.10771592 135.3193552 -50.85229492 135.30297852 C-67.79870708 134.86449833 -84.25467926 129.46059541 -97.5625 118.9296875 C-98.81353516 117.96095703 -98.81353516 117.96095703 -100.08984375 116.97265625 C-113.57345702 105.77440116 -122.03869083 88.48172211 -124.31640625 71.17578125 C-126.15584676 46.91268499 -121.48569334 26.20575498 -105.3203125 7.30859375 C-79.71076037 -20.27415338 -29.35091376 -23.71339069 0 0 Z " fill="#338A52" transform="translate(917.5625,81.0703125)"/>
<path d="M0 0 C12.931875 -0.0825 25.86375 -0.165 39.1875 -0.25 C43.24571045 -0.28641602 47.3039209 -0.32283203 51.48510742 -0.36035156 C56.5045166 -0.37841797 56.5045166 -0.37841797 58.86665344 -0.3817749 C60.48946034 -0.38785067 62.11225109 -0.40177803 63.73493958 -0.42230225 C80.66977972 -0.62548067 95.0249339 2.22481253 107.75 14.25 C117.60271039 24.5909863 120.62090608 34.65808615 120.3125 48.5703125 C119.88554043 57.02767008 116.52455181 62.98726315 111.07421875 69.30859375 C110.54248047 70.14583984 110.54248047 70.14583984 110 71 C110.74510235 74.14301432 110.74510235 74.14301432 113.33203125 75.859375 C118.91383408 80.33789323 123.47766011 87.67053484 124.7890625 94.78125 C126.15912763 109.19230545 123.60024383 120.59283546 114.40625 131.97265625 C104.62653437 142.46739826 90.17439313 147.97156001 75.99642944 148.52900887 C71.75606869 148.59634284 67.52134193 148.55339415 63.28125 148.48828125 C61.64942281 148.48090363 60.01758366 148.47581894 58.38574219 148.47302246 C52.42364432 148.44711126 46.46180194 148.37730718 40.5 148.3125 C27.135 148.209375 13.77 148.10625 0 148 C0 99.16 0 50.32 0 0 Z " fill="#338A52" transform="translate(128,67)"/>
<path d="M0 0 C82.07302231 0 82.07302231 0 102 16 C102.83273437 16.64582031 103.66546875 17.29164062 104.5234375 17.95703125 C118.26461041 29.35163463 125.37227052 45.55251915 128 63 C129.7291586 83.33048214 126.5106825 104.14552701 113.3515625 120.42578125 C97.43202135 138.87580404 78.93434743 145.00820657 55 148 C36.85 148 18.7 148 0 148 C0 99.16 0 50.32 0 0 Z " fill="#348A53" transform="translate(585,67)"/>
<path d="M0 0 C36 0 36 0 43.33984375 7.12109375 C44.82540894 9.60055542 44.82540894 9.60055542 45.68310547 11.83544922 C48.16558111 17.6217926 51.57438526 22.54746627 55.12890625 27.72265625 C56.36628665 29.59634418 57.59867791 31.47333604 58.82617188 33.35351562 C59.44161865 34.29364502 60.05706543 35.23377441 60.69116211 36.20239258 C61.30870361 37.14622803 61.92624512 38.09006348 62.5625 39.0625 C65.0407783 42.84649276 67.52111063 46.62912586 70.00390625 50.41015625 C70.89923569 51.77401962 70.89923569 51.77401962 71.81265259 53.16543579 C75.92258793 59.40858052 80.10484398 65.59669061 84.38441467 71.72486877 C87.41422166 76.07769287 90.17878197 80.48605115 93 85 C93.33 56.95 93.66 28.9 94 0 C105.88 0 117.76 0 130 0 C130 48.84 130 97.68 130 148 C117.79 148 105.58 148 93 148 C85.8678073 140.47786378 85.8678073 140.47786378 83.83734131 134.24255371 C82.43548228 130.48811792 80.12393357 127.43135332 77.80078125 124.1953125 C76.88677916 122.85503771 75.97599568 121.51256262 75.06835938 120.16796875 C74.14985913 118.82023102 73.23124076 117.47257378 72.3125 116.125 C71.44438132 114.84784662 70.57654365 113.57050219 69.70898438 112.29296875 C66.4728703 107.52850044 63.23641415 102.76426448 60 98 C52.41 86.78 44.82 75.56 37 64 C36.67 91.72 36.34 119.44 36 148 C24.12 148 12.24 148 0 148 C0 99.16 0 50.32 0 0 Z " fill="#338952" transform="translate(428,67)"/>
<path d="M0 0 C1.51815699 0.00015911 3.0363194 0.00585313 4.55444336 0.01586914 C5.35208603 0.01728409 6.1497287 0.01869904 6.97154236 0.02015686 C9.52916146 0.02577223 12.08669429 0.03832727 14.64428711 0.05102539 C16.37410356 0.05603841 18.10392137 0.06060166 19.83374023 0.06469727 C24.08312264 0.07574664 28.33244023 0.09302153 32.58178711 0.11352539 C35.68674826 6.10843765 38.31386208 12.18281494 40.79272461 18.4597168 C41.19343674 19.46608185 41.59414886 20.4724469 42.00700378 21.50930786 C43.3269252 24.82658947 44.64185804 28.14582457 45.95678711 31.46508789 C46.88607605 33.80329788 47.81568799 36.14137951 48.74560547 38.4793396 C50.94725585 44.01678579 53.14581477 49.55544922 55.34281254 55.09474218 C58.51851131 63.10112338 61.69999159 71.10520724 64.88088989 79.10952377 C67.23235908 85.02702951 69.58298673 90.94486579 71.93139648 96.86358643 C75.81422697 106.64769514 79.69986704 116.43039059 83.63256836 126.19458008 C83.92702347 126.92646482 84.22147858 127.65834957 84.52485657 128.41241264 C85.82392339 131.640544 87.12639372 134.86715451 88.43554688 138.09121704 C89.07641235 139.68079727 89.07641235 139.68079727 89.73022461 141.30249023 C90.09293457 142.19640472 90.45564453 143.09031921 90.8293457 144.01132202 C91.58178711 146.11352539 91.58178711 146.11352539 91.58178711 148.11352539 C78.71178711 148.11352539 65.84178711 148.11352539 52.58178711 148.11352539 C48.74208725 138.51427574 45.15593396 128.81478114 41.58178711 119.11352539 C23.76178711 119.11352539 5.94178711 119.11352539 -12.41821289 119.11352539 C-15.66729828 128.28222392 -15.66729828 128.28222392 -18.91015625 137.453125 C-19.51549194 139.15480835 -19.51549194 139.15480835 -20.13305664 140.89086914 C-20.54676514 142.0586792 -20.96047363 143.22648926 -21.38671875 144.4296875 C-22.41821289 147.11352539 -22.41821289 147.11352539 -23.41821289 148.11352539 C-26.30255109 148.20217747 -29.16283447 148.22873835 -32.04711914 148.21118164 C-33.34346535 148.20905922 -33.34346535 148.20905922 -34.66600037 148.20689392 C-37.43760581 148.20127778 -40.20913169 148.18872258 -42.98071289 148.17602539 C-44.85506069 148.17101247 -46.72940974 148.1664492 -48.60375977 148.16235352 C-53.20860833 148.15130311 -57.8133971 148.13402769 -62.41821289 148.11352539 C-60.30792801 141.51723931 -57.89409861 135.08209548 -55.32080078 128.65380859 C-54.92023468 127.64729752 -54.51966858 126.64078644 -54.10696411 125.60377502 C-52.7873316 122.28965725 -51.46412649 118.97697857 -50.14086914 115.66430664 C-49.209619 113.32773757 -48.2785876 110.99108131 -47.34776306 108.65434265 C-45.14345277 103.12224243 -42.93687608 97.59104975 -40.7292065 92.06028956 C-38.02092863 85.27495488 -35.31631435 78.48816076 -32.61157227 71.70141602 C-28.43762942 61.22913536 -24.25961927 50.75848459 -20.07923317 40.28877449 C-17.82433193 34.64030927 -15.57256702 28.99062289 -13.32678699 23.33852482 C-12.17529689 20.44078763 -11.02208537 17.54373758 -9.86855888 14.64681053 C-9.12697921 12.78228458 -8.3880356 10.91671084 -7.64918518 9.05110168 C-7.01362953 7.45621162 -7.01362953 7.45621162 -6.36523438 5.82910156 C-5.82962135 4.47977791 -5.82962135 4.47977791 -5.28318787 3.10319519 C-3.86033347 -0.16974392 -3.88102943 0.12889641 0 0 Z " fill="#348A52" transform="translate(321.418212890625,66.886474609375)"/>
<path d="M0 0 C1.0725 0.5775 2.145 1.155 3.25 1.75 C12.27449637 9.13367885 17.51303677 18.3398527 19 30 C20.16428173 43.29344454 18.31468187 56.14882358 9.5 66.75 C0.7127215 75.423158 -9.98863577 78.3823677 -22.125 78.5 C-33.47288001 78.35440813 -42.90096558 75.27269793 -51 67 C-57.97808281 57.77732601 -60.51769946 48.48638478 -60.375 37.0625 C-60.38660156 36.13759766 -60.39820313 35.21269531 -60.41015625 34.25976562 C-60.36271726 22.97719292 -57.16997959 13.50310056 -49.3359375 5.24609375 C-36.63035832 -6.32816674 -15.03100593 -8.12181934 0 0 Z " fill="#FDFEFD" transform="translate(890,104)"/>
<path d="M0 0 C11.88 0 23.76 0 36 0 C36 48.84 36 97.68 36 148 C24.12 148 12.24 148 0 148 C0 99.16 0 50.32 0 0 Z " fill="#338952" transform="translate(735,67)"/>
<path d="M0 0 C33.92857143 0 33.92857143 0 43.765625 9.75 C52.55816351 19.20752041 55.52868672 29.68551792 55.18359375 42.53515625 C54.38455867 53.26262717 50.82496537 63.34892275 43 71 C28.52302105 80.95441858 18.90317667 80 0 80 C0 53.6 0 27.2 0 0 Z " fill="#FEFEFE" transform="translate(622,101)"/>
<path d="M0 0 C6.46026693 -0.09188843 12.91826206 -0.17151102 19.37866211 -0.21972656 C21.57568042 -0.23982767 23.77264532 -0.26711306 25.96948242 -0.30175781 C29.12952866 -0.35034093 32.28886687 -0.37298405 35.44921875 -0.390625 C36.91979988 -0.42159271 36.91979988 -0.42159271 38.42008972 -0.45318604 C42.802354 -0.45462425 45.28195517 -0.44362227 49.07714844 1.90112305 C51.56093097 4.6122808 52.89387611 6.47889089 53.15234375 10.18359375 C52.74090882 14.49992018 52.37821936 16.53449925 49.5625 20 C46.25424239 22.58205472 44.74427964 23.12498402 40.64208984 23.11352539 C39.29091568 23.11341209 39.29091568 23.11341209 37.91244507 23.11329651 C36.93844757 23.10813522 35.96445007 23.10297394 34.9609375 23.09765625 C33.96494537 23.0962413 32.96895325 23.09482635 31.94277954 23.09336853 C28.75348947 23.08775936 25.56426894 23.0752053 22.375 23.0625 C20.21614685 23.05748618 18.05729259 23.05292307 15.8984375 23.04882812 C10.59890982 23.03863673 5.29953299 23.01906307 0 23 C0 15.41 0 7.82 0 0 Z " fill="#FEFEFE" transform="translate(164,158)"/>
<path d="M0 0 C5.60552543 -0.06895179 11.2095736 -0.12866077 16.81518555 -0.16479492 C18.72116081 -0.17986128 20.62710152 -0.20031824 22.53295898 -0.22631836 C25.27596576 -0.26279642 28.01851328 -0.27974792 30.76171875 -0.29296875 C32.03543587 -0.31619453 32.03543587 -0.31619453 33.33488464 -0.33988953 C39.12973872 -0.34152994 42.41172554 0.67947807 46.8125 4.625 C48.68742512 8.37485024 48.77259442 11.90312317 48 16 C46.06658451 19.57052209 43.91644101 21.69451966 40 23 C38.66471193 23.08544291 37.32556112 23.11774625 35.98754883 23.11352539 C35.18694534 23.11344986 34.38634186 23.11337433 33.56147766 23.11329651 C32.70201035 23.10813522 31.84254303 23.10297394 30.95703125 23.09765625 C30.0734343 23.0962413 29.18983734 23.09482635 28.27946472 23.09336853 C25.45710872 23.08777069 22.63483203 23.07521861 19.8125 23.0625 C17.89908969 23.05748472 15.98567813 23.05292186 14.07226562 23.04882812 C9.38145527 23.03865283 4.69081642 23.01907698 0 23 C0 15.41 0 7.82 0 0 Z " fill="#FEFEFE" transform="translate(164,101)"/>
<path d="M0 0 C4.021875 -0.0928125 4.021875 -0.0928125 8.125 -0.1875 C8.95789551 -0.21481201 9.79079102 -0.24212402 10.64892578 -0.27026367 C15.51100233 -0.3242094 18.79933548 0.29234275 23 3 C27.19905865 8.19357254 27.55903741 12.59000243 27.328125 19.1875 C26.82101148 23.5341873 25.28315186 26.36689764 22.625 29.75 C15.65230766 35.11360949 9.09789489 33 0 33 C0 22.11 0 11.22 0 0 Z " fill="#393838" transform="translate(836,244)"/>
<path d="M0 0 C2.701875 -0.061875 5.40375 -0.12375 8.1875 -0.1875 C9.02949951 -0.21481201 9.87149902 -0.24212402 10.73901367 -0.27026367 C15.34149865 -0.32114102 18.25159549 0.04331457 22 3 C26.76519438 8.42702693 27.41229023 11.74215522 27.34375 18.87890625 C26.84284727 23.42687531 25.30143053 26.81373565 22 30 C16 33 16 33 0 33 C0 22.11 0 11.22 0 0 Z " fill="#3A3939" transform="translate(288,244)"/>
<path d="M0 0 C4.5478125 -0.1546875 4.5478125 -0.1546875 9.1875 -0.3125 C10.13391357 -0.35802002 11.08032715 -0.40354004 12.05541992 -0.45043945 C16.50748813 -0.52368758 18.42020897 -0.4387012 22.08203125 2.33203125 C24 5 24 5 24.5 8 C23.95183265 11.28900407 22.91096302 13.29280239 21 16 C21.639375 16.28875 22.27875 16.5775 22.9375 16.875 C25 18 25 18 26 20 C26.41906739 23.77160651 26.31200824 25.50970134 24.25 28.75 C21.63797593 31.36202407 19.60979502 32.82648246 15.89355469 33.22705078 C14.79382324 33.21134033 14.79382324 33.21134033 13.671875 33.1953125 C12.9509668 33.19031738 12.23005859 33.18532227 11.48730469 33.18017578 C10.58399414 33.16196777 9.68068359 33.14375977 8.75 33.125 C5.8625 33.08375 2.975 33.0425 0 33 C0 22.11 0 11.22 0 0 Z " fill="#383737" transform="translate(209,244)"/>
<path d="M0 0 C2.38147017 3.57220526 3.63940543 7.29383886 5.0390625 11.31640625 C5.32478119 12.12867172 5.61049988 12.94093719 5.90487671 13.77781677 C6.5069765 15.49268571 7.10699486 17.20828667 7.70507812 18.92456055 C8.62336303 21.55780586 9.5494592 24.18820763 10.4765625 26.81835938 C11.0603629 28.48421139 11.64371177 30.15022173 12.2265625 31.81640625 C12.50464752 32.60600235 12.78273254 33.39559845 13.06924438 34.2091217 C15 39.76930411 15 39.76930411 15 42 C5.1 42 -4.8 42 -15 42 C-13.20222047 36.00740157 -11.41603276 30.15592366 -9.3359375 24.27734375 C-9.09839752 23.60578751 -8.86085754 22.93423126 -8.61611938 22.24232483 C-8.12158734 20.8464249 -7.62584705 19.45095243 -7.12890625 18.0559082 C-6.36582003 15.91170511 -5.60850605 13.76551886 -4.8515625 11.61914062 C-4.367529 10.2550871 -3.88316648 8.89115028 -3.3984375 7.52734375 C-2.74367432 5.68257446 -2.74367432 5.68257446 -2.07568359 3.80053711 C-1 1 -1 1 0 0 Z " fill="#F9FCFA" transform="translate(336,109)"/>
<path d="M0 0 C3.196875 -0.0825 6.39375 -0.165 9.6875 -0.25 C10.68612061 -0.28641602 11.68474121 -0.32283203 12.71362305 -0.36035156 C16.98285395 -0.41369006 19.36670269 -0.38848656 23.08203125 1.890625 C25.38413109 4.42246596 25.94636247 5.39657773 26.25 8.8125 C25.97212427 12.35541555 25.02619474 14.12955745 23 17 C23.66 17.66 24.32 18.32 25 19 C25.37890625 21.49609375 25.37890625 21.49609375 25.5625 24.4375 C25.76751306 27.57963901 25.99964773 29.99894319 27 33 C25.33388095 33.042721 23.66617115 33.04063832 22 33 C19.86264735 30.86264735 20.49004051 26.36198992 20.28125 23.46875 C20.26614735 21.0586395 20.26614735 21.0586395 19 20 C16.65012738 19.76472227 14.29443961 19.58613583 11.9375 19.4375 C9.648125 19.293125 7.35875 19.14875 5 19 C5 23.62 5 28.24 5 33 C3.35 33 1.7 33 0 33 C0 22.11 0 11.22 0 0 Z " fill="#343333" transform="translate(589,244)"/>
<path d="M0 0 C2.31 0 4.62 0 7 0 C7.23710693 0.72179443 7.47421387 1.44358887 7.71850586 2.18725586 C8.78840239 5.43836757 9.86288718 8.68794431 10.9375 11.9375 C11.31068359 13.07380859 11.68386719 14.21011719 12.06835938 15.38085938 C12.42607422 16.46044922 12.78378906 17.54003906 13.15234375 18.65234375 C13.48226318 19.65257568 13.81218262 20.65280762 14.15209961 21.68334961 C14.79028011 23.9306108 14.79028011 23.9306108 16 25 C16.3556604 23.91730835 16.3556604 23.91730835 16.71850586 22.81274414 C17.78840239 19.56163243 18.86288718 16.31205569 19.9375 13.0625 C20.31068359 11.92619141 20.68386719 10.78988281 21.06835938 9.61914062 C21.42607422 8.53955078 21.78378906 7.45996094 22.15234375 6.34765625 C22.48226318 5.34742432 22.81218262 4.34719238 23.15209961 3.31665039 C24 1 24 1 25 0 C26.98 0 28.96 0 31 0 C31 10.89 31 21.78 31 33 C29.68 33 28.36 33 27 33 C26.505 21.12 26.505 21.12 26 9 C23.36 16.92 20.72 24.84 18 33 C16.35 33 14.7 33 13 33 C10.36 25.08 7.72 17.16 5 9 C4.67 16.92 4.34 24.84 4 33 C2.68 33 1.36 33 0 33 C0 22.11 0 11.22 0 0 Z " fill="#2E2D2D" transform="translate(505,244)"/>
<path d="M0 0 C2.701875 -0.04125 5.40375 -0.0825 8.1875 -0.125 C9.02949951 -0.14320801 9.87149902 -0.16141602 10.73901367 -0.18017578 C14.90204741 -0.21085545 18.28372039 -0.11359029 22 2 C24.44605705 5.66908557 24.83946402 8.73618769 24 13 C21.82425584 15.69105198 20.08934144 17.45532928 17 19 C12.66396021 19.1393329 8.33919329 19.04254111 4 19 C4 23.62 4 28.24 4 33 C2.68 33 1.36 33 0 33 C0 22.11 0 11.22 0 0 Z " fill="#2E2D2D" transform="translate(723,244)"/>
<path d="M0 0 C2.99584708 1.97453558 4.79784475 3.80918423 6.75 6.8125 C6.75 7.8025 6.75 8.7925 6.75 9.8125 C5.43 9.8125 4.11 9.8125 2.75 9.8125 C2.1725 9.008125 1.595 8.20375 1 7.375 C-1.73884772 4.25575677 -3.26851177 3.94114726 -7.28515625 3.671875 C-10.2524458 3.88424562 -11.9816057 4.94441057 -14.25 6.8125 C-16.53219901 10.23579851 -16.54741163 11.65387668 -16.5625 15.6875 C-16.57925781 16.71617187 -16.59601563 17.74484375 -16.61328125 18.8046875 C-16.16881018 22.4847168 -14.89101551 25.17148449 -12.25 27.8125 C-8.52344086 28.29910855 -4.96681391 28.39850862 -1.25 27.8125 C1.51951781 24.84515949 2.48154105 22.61787684 3.75 18.8125 C0.12 18.8125 -3.51 18.8125 -7.25 18.8125 C-7.25 17.4925 -7.25 16.1725 -7.25 14.8125 C-2.3 14.8125 2.65 14.8125 7.75 14.8125 C7.75 20.7525 7.75 26.6925 7.75 32.8125 C6.76 32.8125 5.77 32.8125 4.75 32.8125 C4.09 31.8225 3.43 30.8325 2.75 29.8125 C2.151875 30.3075 1.55375 30.8025 0.9375 31.3125 C-3.79277457 33.53851156 -8.11669983 33.72312836 -13.25 32.8125 C-18.06732536 30.24554155 -20.60551757 26.99185122 -22.25 21.8125 C-22.94666765 15.59677696 -22.89734724 10.09486497 -19.25 4.8125 C-13.70784529 -1.42242405 -7.84763662 -2.86740569 0 0 Z " fill="#343333" transform="translate(349.25,244.1875)"/>
<path d="M0 0 C1.2065625 0.0309375 1.2065625 0.0309375 2.4375 0.0625 C5.59756049 7.35830786 8.48772737 14.73337945 11.25 22.1875 C11.56396729 23.02901611 11.87793457 23.87053223 12.20141602 24.73754883 C12.49201904 25.52798584 12.78262207 26.31842285 13.08203125 27.1328125 C13.34346924 27.84195801 13.60490723 28.55110352 13.87426758 29.28173828 C14.4375 31.0625 14.4375 31.0625 14.4375 33.0625 C12.7875 33.0625 11.1375 33.0625 9.4375 33.0625 C7.9525 28.1125 7.9525 28.1125 6.4375 23.0625 C1.8175 23.0625 -2.8025 23.0625 -7.5625 23.0625 C-8.2225 26.0325 -8.8825 29.0025 -9.5625 32.0625 C-12.0375 32.5575 -12.0375 32.5575 -14.5625 33.0625 C-13.96350964 28.71208835 -12.89750629 24.91557894 -11.3125 20.82421875 C-10.64734375 19.10041992 -10.64734375 19.10041992 -9.96875 17.34179688 C-9.5046875 16.15650391 -9.040625 14.97121094 -8.5625 13.75 C-8.0984375 12.54537109 -7.634375 11.34074219 -7.15625 10.09960938 C-3.26809944 0.07970974 -3.26809944 0.07970974 0 0 Z " fill="#343333" transform="translate(562.5625,243.9375)"/>
<path d="M0 0 C27.06 0 54.12 0 82 0 C82 1.65 82 3.3 82 5 C54.94 5 27.88 5 0 5 C0 3.35 0 1.7 0 0 Z " fill="#328951" transform="translate(882,265)"/>
<path d="M0 0 C27.06 0 54.12 0 82 0 C82 1.65 82 3.3 82 5 C54.94 5 27.88 5 0 5 C0 3.35 0 1.7 0 0 Z " fill="#328951" transform="translate(106,265)"/>
<path d="M0 0 C11 0 11 0 15 2 C17.35616475 5.53424712 17.2981228 7.18644102 17.3125 11.375 C17.32925781 12.49648438 17.34601562 13.61796875 17.36328125 14.7734375 C16.9623153 18.334705 16.14434818 20.15760874 14 23 C11 25 11 25 0 25 C0 16.75 0 8.5 0 0 Z " fill="#FBFBFB" transform="translate(841,248)"/>
<path d="M0 0 C4.48829479 0.05136818 7.55025772 0.6164304 11.3125 3.25 C13.42081259 6.22080411 13.3125 7.44114823 13.3125 11.25 C11.9925 11.25 10.6725 11.25 9.3125 11.25 C7.625 8.8125 7.625 8.8125 6.3125 6.25 C4.72355928 4.66105928 3.06448576 5.08001589 0.875 5.0625 C0.07191406 5.04832031 -0.73117187 5.03414062 -1.55859375 5.01953125 C-3.90380633 5.04837644 -3.90380633 5.04837644 -5.6875 7.25 C-5.36708603 9.85280568 -5.36708603 9.85280568 -4.6875 12.25 C-3.718125 12.518125 -2.74875 12.78625 -1.75 13.0625 C-0.39544538 13.45700369 0.95868122 13.85297846 2.3125 14.25 C3.09238281 14.46785156 3.87226563 14.68570312 4.67578125 14.91015625 C8.02788295 15.91414088 10.68655968 16.71889912 13.375 19 C14.76857855 22.34458851 14.81578088 24.66412371 14.3125 28.25 C11.42970647 31.73969743 9.271165 34.04475067 4.703125 34.5234375 C-4.82689583 34.83162225 -4.82689583 34.83162225 -8.375 32.125 C-10.87996223 29.01072264 -11.50375695 27.20047551 -11.6875 23.25 C-10.3675 23.25 -9.0475 23.25 -7.6875 23.25 C-6 25.6875 -6 25.6875 -4.6875 28.25 C-3.63149622 29.52870382 -3.63149622 29.52870382 -1.21875 29.3828125 C-0.2184375 29.38023437 0.781875 29.37765625 1.8125 29.375 C3.31296875 29.37886719 3.31296875 29.37886719 4.84375 29.3828125 C7.25649622 29.52870382 7.25649622 29.52870382 8.3125 28.25 C8.35330783 26.25041636 8.35504356 24.24954746 8.3125 22.25 C7.19230469 21.93546875 6.07210938 21.6209375 4.91796875 21.296875 C3.445093 20.86533179 1.97244854 20.43299863 0.5 20 C-0.23798828 19.79503906 -0.97597656 19.59007812 -1.73632812 19.37890625 C-5.01644895 18.39932265 -7.20162068 17.73012927 -9.66796875 15.29296875 C-11.2738306 12.07509233 -11.18341817 9.78341694 -10.6875 6.25 C-8.25 3.375 -8.25 3.375 -5.6875 1.25 C-4.05737162 -0.38012838 -2.24312555 0.04023544 0 0 Z " fill="#363535" transform="translate(477.6875,242.75)"/>
<path d="M0 0 C4.11275909 1.54228466 5.55780938 2.33671407 8 6 C8.125 8.6875 8.125 8.6875 8 11 C6.68 11 5.36 11 4 11 C3.71125 10.195625 3.4225 9.39125 3.125 8.5625 C2.26737432 5.8673532 2.26737432 5.8673532 0 5 C-1.91500303 4.84101146 -1.91500303 4.84101146 -4 4.875 C-4.70125 4.87242187 -5.4025 4.86984375 -6.125 4.8671875 C-8.09153775 4.88622764 -8.09153775 4.88622764 -10 6 C-10 7.98 -10 9.96 -10 12 C-9.030625 12.268125 -8.06125 12.53625 -7.0625 12.8125 C-5.70794538 13.20700369 -4.35381878 13.60297846 -3 14 C-2.22011719 14.21785156 -1.44023438 14.43570312 -0.63671875 14.66015625 C2.71538295 15.66414088 5.37405968 16.46889912 8.0625 18.75 C9.45607855 22.09458851 9.50328088 24.41412371 9 28 C6.11720647 31.48969743 3.958665 33.79475067 -0.609375 34.2734375 C-10.13939583 34.58162225 -10.13939583 34.58162225 -13.6875 31.875 C-16.19246223 28.76072264 -16.81625695 26.95047551 -17 23 C-15.35 23 -13.7 23 -12 23 C-11.690625 23.804375 -11.38125 24.60875 -11.0625 25.4375 C-10.23664655 27.89080405 -10.23664655 27.89080405 -9 29 C-7.19072719 29.12487758 -5.37603893 29.17570846 -3.5625 29.1875 C-2.07943359 29.20876953 -2.07943359 29.20876953 -0.56640625 29.23046875 C2.16584415 29.26150753 2.16584415 29.26150753 4 27 C3.67958603 24.39719432 3.67958603 24.39719432 3 22 C2.04738281 21.76925781 1.09476563 21.53851563 0.11328125 21.30078125 C-1.14097656 20.97464844 -2.39523437 20.64851563 -3.6875 20.3125 C-4.92886719 19.99925781 -6.17023437 19.68601562 -7.44921875 19.36328125 C-11.39387405 17.84877663 -13.33222587 16.24229478 -16 13 C-16.77600012 9.75490858 -16.52750399 8.01806217 -14.99609375 5.0625 C-10.93839007 -0.67146304 -6.69657898 -1.20668875 0 0 Z " fill="#353434" transform="translate(700,243)"/>
<path d="M0 0 C11 0 11 0 15 2 C17.23747567 5.18929071 17.29801909 8.10971351 17.3125 11.9375 C17.32925781 12.95714844 17.34601563 13.97679687 17.36328125 15.02734375 C16.91610194 18.68652064 15.62624887 21.37375113 13 24 C8.66469082 24.14393457 4.33842269 24.04212061 0 24 C0 16.08 0 8.16 0 0 Z " fill="#FDFDFD" transform="translate(293,248)"/>
<path d="M0 0 C7.92 0 15.84 0 24 0 C24 1.32 24 2.64 24 4 C17.4 4 10.8 4 4 4 C4 7.3 4 10.6 4 14 C9.94 14 15.88 14 22 14 C22 15.32 22 16.64 22 18 C16.06 18 10.12 18 4 18 C4 21.63 4 25.26 4 29 C10.6 29 17.2 29 24 29 C24 29.99 24 30.98 24 32 C16.08 32 8.16 32 0 32 C0 21.44 0 10.88 0 0 Z " fill="#2C2B2B" transform="translate(761,244)"/>
<path d="M0 0 C7.92 0 15.84 0 24 0 C24 1.32 24 2.64 24 4 C17.4 4 10.8 4 4 4 C4 7.3 4 10.6 4 14 C9.94 14 15.88 14 22 14 C22 15.32 22 16.64 22 18 C16.06 18 10.12 18 4 18 C4 21.63 4 25.26 4 29 C10.6 29 17.2 29 24 29 C24 29.99 24 30.98 24 32 C16.08 32 8.16 32 0 32 C0 21.44 0 10.88 0 0 Z " fill="#2C2B2B" transform="translate(372,244)"/>
<path d="M0 0 C7.59 0 15.18 0 23 0 C23 1.32 23 2.64 23 4 C16.73 4 10.46 4 4 4 C4 7.3 4 10.6 4 14 C9.94 14 15.88 14 22 14 C22 15.32 22 16.64 22 18 C16.06 18 10.12 18 4 18 C4 21.63 4 25.26 4 29 C10.27 29 16.54 29 23 29 C23 29.99 23 30.98 23 32 C15.41 32 7.82 32 0 32 C0 21.44 0 10.88 0 0 Z " fill="#2B2A2A" transform="translate(799,244)"/>
<path d="M0 0 C1.32 0 2.64 0 4 0 C4.01458252 0.6705542 4.02916504 1.3411084 4.04418945 2.03198242 C4.118883 5.08438822 4.21547299 8.13572585 4.3125 11.1875 C4.33505859 12.24259766 4.35761719 13.29769531 4.38085938 14.38476562 C4.41630859 15.40634766 4.45175781 16.42792969 4.48828125 17.48046875 C4.51446533 18.41785889 4.54064941 19.35524902 4.56762695 20.32104492 C5.07715318 23.47803606 6.13047308 25.42362015 8 28 C9.93287396 28.67368184 9.93287396 28.67368184 12 28.4375 C13.0209375 28.40462891 13.0209375 28.40462891 14.0625 28.37109375 C16.31663036 28.06933606 16.31663036 28.06933606 19 26 C19.99455909 23.01632274 20.19559632 20.7995808 20.31640625 17.67578125 C20.35830078 16.64775391 20.40019531 15.61972656 20.44335938 14.56054688 C20.48267578 13.48869141 20.52199219 12.41683594 20.5625 11.3125 C20.60568359 10.22904297 20.64886719 9.14558594 20.69335938 8.02929688 C20.79946838 5.35299209 20.90152361 2.67659474 21 0 C22.32 0 23.64 0 25 0 C25.14570522 4.20796686 25.23421087 8.41528166 25.3125 12.625 C25.35439453 13.81480469 25.39628906 15.00460937 25.43945312 16.23046875 C25.57761714 26.12301248 25.57761714 26.12301248 22.66796875 29.7734375 C18.24042198 33.46846189 14.22259314 33.32967985 8.671875 33.29296875 C5.10144702 32.90147445 3.35491676 31.66890566 1 29 C-0.38308781 26.23382437 -0.11210196 23.98982 -0.09765625 20.8984375 C-0.09443359 19.68671875 -0.09121094 18.475 -0.08789062 17.2265625 C-0.07951172 15.95554687 -0.07113281 14.68453125 -0.0625 13.375 C-0.05798828 12.09625 -0.05347656 10.8175 -0.04882812 9.5 C-0.03701203 6.33328708 -0.02053815 3.16666644 0 0 Z " fill="#2C2B2B" transform="translate(248,244)"/>
<path d="M0 0 C8.91 0 17.82 0 27 0 C27 1.32 27 2.64 27 4 C23.37 4 19.74 4 16 4 C16 13.57 16 23.14 16 33 C14.35 33 12.7 33 11 33 C11 23.43 11 13.86 11 4 C7.37 4 3.74 4 0 4 C0 2.68 0 1.36 0 0 Z " fill="#393838" transform="translate(626,244)"/>
<path d="M0 0 C8.91 0 17.82 0 27 0 C27 1.32 27 2.64 27 4 C23.37 4 19.74 4 16 4 C16 13.57 16 23.14 16 33 C14.35 33 12.7 33 11 33 C11 23.43 11 13.86 11 4 C7.37 4 3.74 4 0 4 C0 2.68 0 1.36 0 0 Z " fill="#393838" transform="translate(406,244)"/>
<path d="M0 0 C2.45862401 -0.05383848 4.9160755 -0.09359038 7.375 -0.125 C8.42300781 -0.15013672 8.42300781 -0.15013672 9.4921875 -0.17578125 C11.32897486 -0.19344267 13.16601963 -0.10303261 15 0 C17 2 17 2 17.3125 4.9375 C17 8 17 8 15.9296875 9.6796875 C12.96025456 11.71140478 10.3521859 11.28492255 6.8125 11.1875 C5.54019531 11.16042969 4.26789062 11.13335937 2.95703125 11.10546875 C1.98121094 11.07066406 1.00539063 11.03585937 0 11 C0 7.37 0 3.74 0 0 Z " fill="#F2F2F2" transform="translate(593,248)"/>
<path d="M0 0 C9.97814208 -0.36065574 9.97814208 -0.36065574 14.1875 1.125 C16 3 16 3 16.5625 6 C16 9 16 9 14.35546875 10.67578125 C11.31532962 12.3849142 9.21445387 12.30047132 5.75 12.1875 C2.90375 12.0946875 2.90375 12.0946875 0 12 C0 8.04 0 4.08 0 0 Z " fill="#F4F4F4" transform="translate(214,261)"/>
<path d="M0 0 C2.12472576 -0.05386629 4.24983652 -0.09273071 6.375 -0.125 C7.55835938 -0.14820313 8.74171875 -0.17140625 9.9609375 -0.1953125 C13 0 13 0 15 2 C15.25 5.5 15.25 5.5 15 9 C13 11 13 11 9.9609375 11.1953125 C8.77757812 11.17210937 7.59421875 11.14890625 6.375 11.125 C5.18648437 11.10695313 3.99796875 11.08890625 2.7734375 11.0703125 C1.85820313 11.04710937 0.94296875 11.02390625 0 11 C0 7.37 0 3.74 0 0 Z " fill="#F9F9F9" transform="translate(727,248)"/>
<path d="M0 0 C1.95825873 -0.02694851 3.91662226 -0.04637218 5.875 -0.0625 C6.96554688 -0.07410156 8.05609375 -0.08570313 9.1796875 -0.09765625 C12 0 12 0 14 1 C14.125 4.375 14.125 4.375 14 8 C12 10 12 10 9.1796875 10.1953125 C8.08914062 10.17210937 6.99859375 10.14890625 5.875 10.125 C4.77929688 10.10695313 3.68359375 10.08890625 2.5546875 10.0703125 C1.71164063 10.04710937 0.86859375 10.02390625 0 10 C0 6.7 0 3.4 0 0 Z " fill="#F6F6F6" transform="translate(214,248)"/>
<path d="M0 0 C2.00993705 3.01490557 2.72623341 5.2149927 3.625 8.6875 C3.88539063 9.68136719 4.14578125 10.67523438 4.4140625 11.69921875 C4.60742188 12.45847656 4.80078125 13.21773438 5 14 C1.7 14 -1.6 14 -5 14 C-3.35 9.38 -1.7 4.76 0 0 Z " fill="#F0F0F0" transform="translate(562,249)"/>
<path d="M0 0 C3.63 0 7.26 0 11 0 C11 1.32 11 2.64 11 4 C7.37 4 3.74 4 0 4 C0 2.68 0 1.36 0 0 Z " fill="#262525" transform="translate(443,262)"/>
</svg>
